<svg width="18" height="18" viewBox="0 0 18 18" fill="none" xmlns="http://www.w3.org/2000/svg">
<path d="M6.1875 12.9234H4.78125V12.3941C5.03761 12.246 5.25052 12.0331 5.39861 11.7768C5.54671 11.5204 5.62478 11.2296 5.625 10.9336V9.87891C5.625 9.43135 5.44721 9.00213 5.13074 8.68566C4.81428 8.3692 4.38505 8.19141 3.9375 8.19141C3.48995 8.19141 3.06072 8.3692 2.74426 8.68566C2.42779 9.00213 2.25 9.43135 2.25 9.87891V10.9336C2.25022 11.2296 2.32829 11.5204 2.47639 11.7768C2.62448 12.0331 2.83739 12.246 3.09375 12.3941V12.9234H1.6875C1.31467 12.9239 0.957226 13.0721 0.693594 13.3358C0.429961 13.5994 0.281669 13.9569 0.28125 14.3297V15.4477C0.28125 15.5222 0.310882 15.5938 0.363626 15.6465C0.416371 15.6993 0.487908 15.7289 0.5625 15.7289H7.3125C7.38709 15.7289 7.45863 15.6993 7.51137 15.6465C7.56412 15.5938 7.59375 15.5222 7.59375 15.4477V14.3297C7.59333 13.9569 7.44504 13.5994 7.18141 13.3358C6.91777 13.0721 6.56033 12.9239 6.1875 12.9234V12.9234ZM3.9375 8.75391C4.182 8.75425 4.41976 8.83411 4.61489 8.98143C4.81002 9.12876 4.95194 9.33556 5.01922 9.57062L4.65602 9.3285C4.60192 9.29243 4.53699 9.27622 4.47229 9.28263C4.40758 9.28904 4.3471 9.31767 4.30112 9.36366C3.79596 9.86882 3.1687 10.0387 2.8125 10.096V9.87891C2.81283 9.58064 2.93147 9.29469 3.14237 9.08378C3.35328 8.87288 3.63923 8.75424 3.9375 8.75391V8.75391ZM2.8125 10.6654C3.19605 10.6154 3.90491 10.4523 4.52813 9.91927L5.0625 10.2755V10.9336C5.0625 11.232 4.94397 11.5181 4.73299 11.7291C4.52202 11.9401 4.23587 12.0586 3.9375 12.0586C3.63913 12.0586 3.35298 11.9401 3.142 11.7291C2.93103 11.5181 2.8125 11.232 2.8125 10.9336V10.6654ZM4.21875 12.6211V12.9023H3.65625V12.6211H4.21875ZM7.03125 15.1664H6.46875V14.625C6.46875 14.5504 6.43912 14.4789 6.38637 14.4261C6.33363 14.3734 6.26209 14.3438 6.1875 14.3438C6.11291 14.3438 6.04137 14.3734 5.98863 14.4261C5.93588 14.4789 5.90625 14.5504 5.90625 14.625V15.1664H1.93359V14.625C1.93359 14.5504 1.90396 14.4789 1.85122 14.4261C1.79847 14.3734 1.72694 14.3438 1.65234 14.3438C1.57775 14.3438 1.50621 14.3734 1.45347 14.4261C1.40073 14.4789 1.37109 14.5504 1.37109 14.625V15.1664H0.84375V14.3297C0.844001 14.106 0.932977 13.8915 1.09116 13.7333C1.24934 13.5752 1.4638 13.4862 1.6875 13.4859H6.1875C6.4112 13.4862 6.62566 13.5752 6.78384 13.7333C6.94202 13.8915 7.031 14.106 7.03125 14.3297V15.1664Z" fill="white"/>
<path d="M17.4375 2.53125H6.1875C6.11291 2.53125 6.04137 2.56088 5.98863 2.61363C5.93588 2.66637 5.90625 2.73791 5.90625 2.8125V9.84375C5.90625 9.91834 5.93588 9.98988 5.98863 10.0426C6.04137 10.0954 6.11291 10.125 6.1875 10.125H7.3125V11.5312C7.3125 11.5869 7.32899 11.6413 7.3599 11.6875C7.3908 11.7338 7.43473 11.7698 7.48612 11.7911C7.53751 11.8124 7.59406 11.818 7.64862 11.8071C7.70318 11.7963 7.7533 11.7695 7.79263 11.7301L9.39772 10.125H17.4375C17.5121 10.125 17.5836 10.0954 17.6364 10.0426C17.6891 9.98988 17.7188 9.91834 17.7188 9.84375V2.8125C17.7188 2.73791 17.6891 2.66637 17.6364 2.61363C17.5836 2.56088 17.5121 2.53125 17.4375 2.53125ZM17.1562 9.5625H9.28125C9.24432 9.5625 9.20774 9.56977 9.17362 9.58391C9.13949 9.59804 9.10849 9.61875 9.08237 9.64487L7.875 10.8522V9.84375C7.875 9.76916 7.84537 9.69762 7.79262 9.64488C7.73988 9.59213 7.66834 9.5625 7.59375 9.5625H6.46875V3.09375H17.1562V9.5625Z" fill="white"/>
<path d="M9 5.34375H15.1875C15.2621 5.34375 15.3336 5.31412 15.3864 5.26137C15.4391 5.20863 15.4688 5.13709 15.4688 5.0625C15.4688 4.98791 15.4391 4.91637 15.3864 4.86363C15.3336 4.81088 15.2621 4.78125 15.1875 4.78125H9C8.92541 4.78125 8.85387 4.81088 8.80113 4.86363C8.74838 4.91637 8.71875 4.98791 8.71875 5.0625C8.71875 5.13709 8.74838 5.20863 8.80113 5.26137C8.85387 5.31412 8.92541 5.34375 9 5.34375Z" fill="white"/>
<path d="M9 6.46875H15.1875C15.2621 6.46875 15.3336 6.43912 15.3864 6.38637C15.4391 6.33363 15.4688 6.26209 15.4688 6.1875C15.4688 6.11291 15.4391 6.04137 15.3864 5.98863C15.3336 5.93588 15.2621 5.90625 15.1875 5.90625H9C8.92541 5.90625 8.85387 5.93588 8.80113 5.98863C8.74838 6.04137 8.71875 6.11291 8.71875 6.1875C8.71875 6.26209 8.74838 6.33363 8.80113 6.38637C8.85387 6.43912 8.92541 6.46875 9 6.46875Z" fill="white"/>
<path d="M9 7.59375H12.9375C13.0121 7.59375 13.0836 7.56412 13.1364 7.51137C13.1891 7.45863 13.2188 7.38709 13.2188 7.3125C13.2188 7.23791 13.1891 7.16637 13.1364 7.11363C13.0836 7.06088 13.0121 7.03125 12.9375 7.03125H9C8.92541 7.03125 8.85387 7.06088 8.80113 7.11363C8.74838 7.16637 8.71875 7.23791 8.71875 7.3125C8.71875 7.38709 8.74838 7.45863 8.80113 7.51137C8.85387 7.56412 8.92541 7.59375 9 7.59375Z" fill="white"/>
<path d="M14.0625 7.03125H13.7812C13.7067 7.03125 13.6351 7.06088 13.5824 7.11363C13.5296 7.16637 13.5 7.23791 13.5 7.3125C13.5 7.38709 13.5296 7.45863 13.5824 7.51137C13.6351 7.56412 13.7067 7.59375 13.7812 7.59375H14.0625C14.1371 7.59375 14.2086 7.56412 14.2614 7.51137C14.3141 7.45863 14.3438 7.38709 14.3438 7.3125C14.3438 7.23791 14.3141 7.16637 14.2614 7.11363C14.2086 7.06088 14.1371 7.03125 14.0625 7.03125Z" fill="white"/>
</svg>
