<svg width="18" height="18" viewBox="0 0 18 18" fill="none" xmlns="http://www.w3.org/2000/svg">
<path d="M16.5 17.4V15.8466C17.0761 15.6037 17.4367 15.0242 17.4 14.4C17.4 13.5729 16.8618 12.9 16.2 12.9C15.5382 12.9 15 13.5729 15 14.4C14.9633 15.0242 15.3239 15.6037 15.9 15.8466V17.4H14.4V8.1C14.4 7.9863 14.3358 7.88231 14.2341 7.8315L12 6.7146V5.1C12.0001 4.96601 11.9113 4.84823 11.7825 4.8114L7.8 3.6735V0.3C7.8 0.134325 7.66568 0 7.5 0H1.5C1.33433 0 1.2 0.134325 1.2 0.3V17.4H0V18H18V17.4H16.5ZM7.2 17.4H1.8V16.8H4.5V16.2H1.8V15H4.5V14.4H1.8V13.2H4.5V12.6H1.8V11.4H4.5V10.8H1.8V9.6H4.5V9H1.8V7.8H4.5V7.2H1.8V6H4.5V5.4H1.8V4.2H4.5V3.6H1.8V2.4H4.5V1.8H1.8V0.6H7.2V17.4ZM11.4 17.4H7.8V16.8H9.9V16.2H7.8V15H9.9V14.4H7.8V13.2H9.9V12.6H7.8V11.4H9.9V10.8H7.8V9.6H9.9V9H7.8V7.8H9.9V7.2H7.8V6H9.9V5.4H7.8V4.2978L11.4 5.3262V17.4ZM13.8 17.4H12V16.8H12.9V16.2H12V15H12.9V14.4H12V13.2H12.9V12.6H12V11.4H12.9V10.8H12V9.6H12.9V9H12V7.3854L13.8 8.2854V17.4ZM15.9 15.171C15.6985 14.966 15.5901 14.6873 15.6 14.4C15.6 13.9122 15.8748 13.5 16.2 13.5C16.5252 13.5 16.8 13.9122 16.8 14.4C16.8097 14.6872 16.7013 14.9659 16.5 15.171V14.7H15.9V15.171Z" fill="#BEBEBE"/>
</svg>
