<svg width="18" height="18" viewBox="0 0 18 18" fill="none" xmlns="http://www.w3.org/2000/svg">
<path d="M2.91797 11.7509C2.97861 11.7993 4.42164 12.9375 6.1875 12.9375C7.95336 12.9375 9.39639 11.7993 9.45703 11.7509C9.48995 11.7245 9.51652 11.6911 9.53478 11.6531C9.55304 11.6151 9.56251 11.5734 9.5625 11.5312C9.5625 9.9168 8.59155 8.5436 7.24922 8.06048C7.5204 7.84101 7.71689 7.54289 7.81165 7.20714C7.90642 6.8714 7.8948 6.51454 7.77839 6.18567C7.66198 5.8568 7.44651 5.5721 7.16163 5.37073C6.87675 5.16937 6.53647 5.06125 6.18761 5.06125C5.83874 5.06125 5.49846 5.16937 5.21358 5.37073C4.9287 5.5721 4.71323 5.8568 4.59682 6.18567C4.48041 6.51454 4.46879 6.8714 4.56356 7.20714C4.65832 7.54289 4.85482 7.84101 5.12599 8.06048C3.78345 8.5436 2.8125 9.9168 2.8125 11.5312C2.81249 11.5734 2.82196 11.6151 2.84022 11.6531C2.85848 11.6911 2.88505 11.7245 2.91797 11.7509ZM5.0625 6.74999C5.0625 6.52749 5.12848 6.30998 5.2521 6.12498C5.37571 5.93997 5.55141 5.79578 5.75698 5.71063C5.96255 5.62548 6.18875 5.6032 6.40698 5.64661C6.62521 5.69002 6.82566 5.79717 6.983 5.9545C7.14033 6.11183 7.24748 6.31229 7.29088 6.53052C7.33429 6.74875 7.31201 6.97495 7.22686 7.18051C7.14172 7.38608 6.99752 7.56178 6.81252 7.6854C6.62751 7.80901 6.41 7.87499 6.1875 7.87499C5.88923 7.87466 5.60328 7.75603 5.39237 7.54512C5.18147 7.33421 5.06283 7.04826 5.0625 6.74999ZM6.1875 8.43749C7.6957 8.43749 8.93046 9.75016 8.99715 11.3914C8.64707 11.6389 7.49563 12.375 6.1875 12.375C4.87937 12.375 3.72793 11.6389 3.37785 11.3914C3.44454 9.75016 4.6793 8.43749 6.1875 8.43749Z" fill="white"/>
<path d="M2.53125 15.1875H15.4688C15.8416 15.1871 16.199 15.0388 16.4627 14.7752C16.7263 14.5115 16.8746 14.1541 16.875 13.7812V4.21875C16.8746 3.84592 16.7263 3.48848 16.4627 3.22484C16.199 2.96121 15.8416 2.81292 15.4688 2.8125H2.53125C2.15842 2.81292 1.80098 2.96121 1.53734 3.22484C1.27371 3.48848 1.12542 3.84592 1.125 4.21875V13.7812C1.12542 14.1541 1.27371 14.5115 1.53734 14.7752C1.80098 15.0388 2.15842 15.1871 2.53125 15.1875ZM1.6875 4.21875C1.68775 3.99505 1.77673 3.78059 1.93491 3.62241C2.09309 3.46423 2.30755 3.37525 2.53125 3.375H15.4688C15.6924 3.37526 15.9069 3.46424 16.0651 3.62242C16.2233 3.78059 16.3122 3.99505 16.3125 4.21875V13.7812C16.3122 14.0049 16.2233 14.2194 16.0651 14.3776C15.9069 14.5358 15.6924 14.6247 15.4688 14.625H2.53125C2.30755 14.6247 2.09309 14.5358 1.93491 14.3776C1.77673 14.2194 1.68775 14.0049 1.6875 13.7812V4.21875Z" fill="white"/>
<path d="M10.9688 6.75H14.9062C14.9808 6.75 15.0524 6.72037 15.1051 6.66762C15.1579 6.61488 15.1875 6.54334 15.1875 6.46875C15.1875 6.39416 15.1579 6.32262 15.1051 6.26988C15.0524 6.21713 14.9808 6.1875 14.9062 6.1875H10.9688C10.8942 6.1875 10.8226 6.21713 10.7699 6.26988C10.7171 6.32262 10.6875 6.39416 10.6875 6.46875C10.6875 6.54334 10.7171 6.61488 10.7699 6.66762C10.8226 6.72037 10.8942 6.75 10.9688 6.75Z" fill="white"/>
<path d="M10.9688 8.4375H14.9062C14.9808 8.4375 15.0524 8.40787 15.1051 8.35512C15.1579 8.30238 15.1875 8.23084 15.1875 8.15625C15.1875 8.08166 15.1579 8.01012 15.1051 7.95738C15.0524 7.90463 14.9808 7.875 14.9062 7.875H10.9688C10.8942 7.875 10.8226 7.90463 10.7699 7.95738C10.7171 8.01012 10.6875 8.08166 10.6875 8.15625C10.6875 8.23084 10.7171 8.30238 10.7699 8.35512C10.8226 8.40787 10.8942 8.4375 10.9688 8.4375Z" fill="white"/>
<path d="M10.9688 10.125H14.9062C14.9808 10.125 15.0524 10.0954 15.1051 10.0426C15.1579 9.98988 15.1875 9.91834 15.1875 9.84375C15.1875 9.76916 15.1579 9.69762 15.1051 9.64488C15.0524 9.59213 14.9808 9.5625 14.9062 9.5625H10.9688C10.8942 9.5625 10.8226 9.59213 10.7699 9.64488C10.7171 9.69762 10.6875 9.76916 10.6875 9.84375C10.6875 9.91834 10.7171 9.98988 10.7699 10.0426C10.8226 10.0954 10.8942 10.125 10.9688 10.125Z" fill="white"/>
<path d="M10.9688 11.8125H14.9062C14.9808 11.8125 15.0524 11.7829 15.1051 11.7301C15.1579 11.6774 15.1875 11.6058 15.1875 11.5312C15.1875 11.4567 15.1579 11.3851 15.1051 11.3324C15.0524 11.2796 14.9808 11.25 14.9062 11.25H10.9688C10.8942 11.25 10.8226 11.2796 10.7699 11.3324C10.7171 11.3851 10.6875 11.4567 10.6875 11.5312C10.6875 11.6058 10.7171 11.6774 10.7699 11.7301C10.8226 11.7829 10.8942 11.8125 10.9688 11.8125Z" fill="white"/>
</svg>
