<svg width="18" height="18" viewBox="0 0 18 18" fill="none" xmlns="http://www.w3.org/2000/svg">
<g clip-path="url(#clip0)">
<path d="M11.0251 11.9892H8.16174C8.01613 11.9892 7.89807 12.1072 7.89807 12.2528C7.89807 12.3985 8.01613 12.5165 8.16174 12.5165H11.0251C11.1707 12.5165 11.2888 12.3985 11.2888 12.2528C11.2888 12.1072 11.1708 11.9892 11.0251 11.9892Z" fill="white"/>
<path d="M13.8885 13.3426H8.16174C8.01613 13.3426 7.89807 13.4606 7.89807 13.6062C7.89807 13.7519 8.01613 13.8699 8.16174 13.8699H13.8885C14.0341 13.8699 14.1522 13.7519 14.1522 13.6062C14.1522 13.4606 14.0341 13.3426 13.8885 13.3426Z" fill="white"/>
<path d="M11.0251 7.57047H8.16174C8.01613 7.57047 7.89807 7.68848 7.89807 7.83414C7.89807 7.97979 8.01613 8.09781 8.16174 8.09781H11.0251C11.1707 8.09781 11.2888 7.97979 11.2888 7.83414C11.2888 7.68848 11.1708 7.57047 11.0251 7.57047Z" fill="white"/>
<path d="M13.8885 8.92389H8.16174C8.01613 8.92389 7.89807 9.04191 7.89807 9.18756C7.89807 9.33321 8.01613 9.45123 8.16174 9.45123H13.8885C14.0341 9.45123 14.1522 9.33321 14.1522 9.18756C14.1522 9.04191 14.0341 8.92389 13.8885 8.92389Z" fill="white"/>
<path d="M11.0251 3.15179H8.16174C8.01613 3.15179 7.89807 3.26981 7.89807 3.41547C7.89807 3.56112 8.01613 3.67914 8.16174 3.67914H11.0251C11.1707 3.67914 11.2888 3.56112 11.2888 3.41547C11.2888 3.26981 11.1708 3.15179 11.0251 3.15179Z" fill="white"/>
<path d="M13.8885 4.50522H8.16174C8.01613 4.50522 7.89807 4.62324 7.89807 4.76889C7.89807 4.91454 8.01613 5.03256 8.16174 5.03256H13.8885C14.0341 5.03256 14.1522 4.91454 14.1522 4.76889C14.1522 4.62324 14.0341 4.50522 13.8885 4.50522Z" fill="white"/>
<path d="M11.28 15.5162H6.72011C6.2867 15.5162 5.93408 15.8688 5.93408 16.3022V17.214C5.93412 17.6474 6.2867 18 6.72011 18H11.28C11.7134 18 12.066 17.6474 12.066 17.214V16.3022C12.066 15.8688 11.7134 15.5162 11.28 15.5162ZM6.72011 17.4727C6.57748 17.4727 6.46143 17.3566 6.46143 17.214V16.3022C6.46143 16.1595 6.57748 16.0435 6.72011 16.0435H11.28C11.4226 16.0435 11.5387 16.1596 11.5387 16.3022V17.214C11.5387 17.3566 11.4226 17.4727 11.28 17.4727H6.72011Z" fill="white"/>
<path d="M5.72755 11.6357H4.55569C4.16535 11.6357 3.84778 11.9533 3.84778 12.3436V13.5155C3.84778 13.9058 4.16535 14.2234 4.55569 14.2234H5.72755C6.11789 14.2234 6.43546 13.9058 6.43546 13.5155V12.3436C6.43546 11.9533 6.11789 11.6357 5.72755 11.6357ZM4.55569 13.696C4.45612 13.696 4.37512 13.615 4.37512 13.5155V12.3436C4.37512 12.244 4.45612 12.163 4.55569 12.163H5.72755C5.82711 12.163 5.90811 12.244 5.90811 12.3436V13.5155C5.90811 13.615 5.82711 13.696 5.72755 13.696H4.55569Z" fill="white"/>
<path d="M5.72755 7.21701H4.55569C4.16535 7.21701 3.84778 7.53458 3.84778 7.92492V9.09678C3.84778 9.48712 4.16535 9.80469 4.55569 9.80469H5.72755C6.11789 9.80469 6.43546 9.48712 6.43546 9.09678V7.92492C6.43546 7.53458 6.11789 7.21701 5.72755 7.21701ZM4.55569 9.27734C4.45612 9.27734 4.37512 9.19634 4.37512 9.09678V7.92492C4.37512 7.82536 4.45612 7.74436 4.55569 7.74436H5.72755C5.82711 7.74436 5.90811 7.82536 5.90811 7.92492V9.09678C5.90811 9.19634 5.82711 9.27734 5.72755 9.27734H4.55569Z" fill="white"/>
<path d="M5.72755 2.79833H4.55569C4.16535 2.79833 3.84778 3.1159 3.84778 3.50627V4.6781C3.84778 5.06848 4.16535 5.38605 4.55569 5.38605H5.72755C6.11789 5.38605 6.43546 5.06848 6.43546 4.6781V3.50627C6.43546 3.1159 6.11789 2.79833 5.72755 2.79833ZM4.55569 4.85867C4.45612 4.85867 4.37512 4.77763 4.37512 4.67807V3.50624C4.37512 3.40668 4.45612 3.32564 4.55569 3.32564H5.72755C5.82711 3.32564 5.90811 3.40668 5.90811 3.50624V4.67807C5.90811 4.77763 5.82711 4.85867 5.72755 4.85867H4.55569Z" fill="white"/>
<path d="M14.6092 1.52588e-05H3.3908C2.76094 1.52588e-05 2.24854 0.512417 2.24854 1.14228V15.8795C2.24854 16.5094 2.76097 17.0218 3.3908 17.0218H4.97089C5.11651 17.0218 5.23457 16.9037 5.23457 16.7581C5.23457 16.6124 5.11651 16.4944 4.97089 16.4944H3.3908C3.05171 16.4944 2.77588 16.2186 2.77588 15.8795V1.14231C2.77588 0.80323 3.05175 0.527393 3.3908 0.527393H14.6092C14.9483 0.527393 15.2241 0.803265 15.2241 1.14231V15.8795C15.2241 16.2186 14.9483 16.4944 14.6092 16.4944H13.0291C12.8835 16.4944 12.7655 16.6124 12.7655 16.7581C12.7655 16.9037 12.8835 17.0218 13.0291 17.0218H14.6092C15.2391 17.0218 15.7515 16.5094 15.7515 15.8795V1.14231C15.7515 0.512417 15.239 1.52588e-05 14.6092 1.52588e-05Z" fill="white"/>
</g>
<defs>
<clipPath id="clip0">
<rect width="18" height="18" fill="white" transform="matrix(1 0 0 -1 0 18)"/>
</clipPath>
</defs>
</svg>
