<svg width="17" height="18" viewBox="0 0 17 18" fill="none" xmlns="http://www.w3.org/2000/svg">
<g clip-path="url(#clip0)">
<path d="M15.5357 4.5H1.03571C0.46469 4.5 0 3.99525 0 3.375V1.125C0 0.50475 0.46469 0 1.03571 0H15.5357C16.1067 0 16.5714 0.50475 16.5714 1.125V3.375C16.5714 3.99525 16.1067 4.5 15.5357 4.5ZM1.03571 0.75C0.845143 0.75 0.690476 0.918 0.690476 1.125V3.375C0.690476 3.582 0.845143 3.75 1.03571 3.75H15.5357C15.7263 3.75 15.881 3.582 15.881 3.375V1.125C15.881 0.918 15.7263 0.75 15.5357 0.75H1.03571Z" fill="white"/>
<path d="M6.55952 18H1.03571C0.46469 18 0 17.4952 0 16.875V7.125C0 6.50475 0.46469 6 1.03571 6H6.55952C7.13055 6 7.59524 6.50475 7.59524 7.125V16.875C7.59524 17.4952 7.13055 18 6.55952 18ZM1.03571 6.75C0.845143 6.75 0.690476 6.918 0.690476 7.125V16.875C0.690476 17.082 0.845143 17.25 1.03571 17.25H6.55952C6.75009 17.25 6.90476 17.082 6.90476 16.875V7.125C6.90476 6.918 6.75009 6.75 6.55952 6.75H1.03571Z" fill="white"/>
<path d="M15.5357 11.25H10.0119C9.44089 11.25 8.9762 10.7452 8.9762 10.125V7.125C8.9762 6.50475 9.44089 6 10.0119 6H15.5357C16.1067 6 16.5714 6.50475 16.5714 7.125V10.125C16.5714 10.7452 16.1067 11.25 15.5357 11.25ZM10.0119 6.75C9.82134 6.75 9.66667 6.918 9.66667 7.125V10.125C9.66667 10.332 9.82134 10.5 10.0119 10.5H15.5357C15.7263 10.5 15.881 10.332 15.881 10.125V7.125C15.881 6.918 15.7263 6.75 15.5357 6.75H10.0119Z" fill="white"/>
<path d="M15.5357 18H10.0119C9.44089 18 8.9762 17.4953 8.9762 16.875V13.875C8.9762 13.2548 9.44089 12.75 10.0119 12.75H15.5357C16.1067 12.75 16.5714 13.2548 16.5714 13.875V16.875C16.5714 17.4953 16.1067 18 15.5357 18ZM10.0119 13.5C9.82134 13.5 9.66667 13.668 9.66667 13.875V16.875C9.66667 17.082 9.82134 17.25 10.0119 17.25H15.5357C15.7263 17.25 15.881 17.082 15.881 16.875V13.875C15.881 13.668 15.7263 13.5 15.5357 13.5H10.0119Z" fill="white"/>
</g>
<defs>
<clipPath id="clip0">
<rect width="16.5714" height="18" fill="white"/>
</clipPath>
</defs>
</svg>
