<svg width="18" height="18" viewBox="0 0 18 18" fill="none" xmlns="http://www.w3.org/2000/svg">
<path d="M15.75 0H4.07812V1.82812H2.25V18H13.9219V16.1719H15.75V0ZM2.67188 17.5781V2.25H10.6875V5.0625H13.5V17.5781H2.67188ZM11.1094 2.5483L13.2017 4.64062H11.1094V2.5483ZM15.3281 15.75H13.9219V4.7642L10.9858 1.82812H4.5V0.421875H15.3281V15.75Z" fill="white"/>
<path d="M4.14844 4.07812H7.52344V4.5H4.14844V4.07812Z" fill="white"/>
<path d="M4.14844 5.20312H6.39844V5.625H4.14844V5.20312Z" fill="white"/>
<path d="M4.14844 6.89062H12.0234V7.3125H4.14844V6.89062Z" fill="white"/>
<path d="M4.14844 8.01562H12.0234V8.4375H4.14844V8.01562Z" fill="white"/>
<path d="M4.14844 10.2656H12.0234V10.6875H4.14844V10.2656Z" fill="white"/>
<path d="M4.14844 11.3906H9.77344V11.8125H4.14844V11.3906Z" fill="white"/>
<path d="M4.14844 9.14062H12.0234V9.5625H4.14844V9.14062Z" fill="white"/>
<path d="M9.21094 13.0781H12.0234V13.5H9.21094V13.0781Z" fill="white"/>
</svg>
