<svg width="25" height="25" viewBox="0 0 25 25" fill="none" xmlns="http://www.w3.org/2000/svg">
<path d="M19.792 20.8333H5.20866C4.93239 20.8333 4.66744 20.9431 4.47209 21.1384C4.27674 21.3338 4.16699 21.5987 4.16699 21.875C4.16699 22.1512 4.27674 22.4162 4.47209 22.6116C4.66744 22.8069 4.93239 22.9166 5.20866 22.9166H19.792C20.0683 22.9166 20.3332 22.8069 20.5286 22.6116C20.7239 22.4162 20.8337 22.1512 20.8337 21.875C20.8337 21.5987 20.7239 21.3338 20.5286 21.1384C20.3332 20.9431 20.0683 20.8333 19.792 20.8333Z" fill="#1E2337" fill-opacity="0.7"/>
<path d="M5.20815 18.75H5.3019L9.64565 18.3542C10.1215 18.3068 10.5665 18.0971 10.9061 17.7604L20.2811 8.38541C20.6449 8.001 20.8416 7.48802 20.8279 6.95889C20.8143 6.42975 20.5914 5.92761 20.2082 5.56249L17.354 2.70833C16.9815 2.35843 16.4934 2.15766 15.9825 2.14422C15.4716 2.13077 14.9735 2.30559 14.5832 2.63541L5.20815 12.0104C4.87145 12.35 4.6618 12.795 4.6144 13.2708L4.16649 17.6146C4.15246 17.7671 4.17225 17.9209 4.22447 18.065C4.27668 18.209 4.36003 18.3398 4.46857 18.4479C4.5659 18.5445 4.68134 18.6208 4.80825 18.6727C4.93517 18.7245 5.07106 18.7508 5.20815 18.75ZM15.9061 4.16666L18.7498 7.01041L16.6665 9.04166L13.8748 6.24999L15.9061 4.16666ZM6.63524 13.4479L12.4998 7.625L15.3123 10.4375L9.47899 16.2708L6.35399 16.5625L6.63524 13.4479Z" fill="#1E2337" fill-opacity="0.7"/>
</svg>
