<svg width="16" height="16" viewBox="0 0 16 16" fill="none" xmlns="http://www.w3.org/2000/svg">
<g id="Icon/Outline/person">
<path id="Mask" fill-rule="evenodd" clip-rule="evenodd" d="M9.33301 4.66667C9.33301 3.93133 8.73501 3.33333 7.99967 3.33333C7.26434 3.33333 6.66634 3.93133 6.66634 4.66667C6.66634 5.402 7.26434 6 7.99967 6C8.73501 6 9.33301 5.402 9.33301 4.66667ZM10.6663 4.66667C10.6663 6.13733 9.47034 7.33333 7.99967 7.33333C6.52901 7.33333 5.33301 6.13733 5.33301 4.66667C5.33301 3.196 6.52901 2 7.99967 2C9.47034 2 10.6663 3.196 10.6663 4.66667ZM3.33301 13.3333C3.33301 10.76 5.42701 8.66667 7.99967 8.66667C10.5723 8.66667 12.6663 10.76 12.6663 13.3333C12.6663 13.7013 12.3683 14 11.9997 14C11.631 14 11.333 13.7013 11.333 13.3333C11.333 11.4953 9.83767 10 7.99967 10C6.16167 10 4.66634 11.4953 4.66634 13.3333C4.66634 13.7013 4.36834 14 3.99967 14C3.63101 14 3.33301 13.7013 3.33301 13.3333Z" fill="#231F20"/>
<mask id="mask0" mask-type="alpha" maskUnits="userSpaceOnUse" x="3" y="2" width="10" height="12">
<path id="Mask_2" fill-rule="evenodd" clip-rule="evenodd" d="M9.33301 4.66667C9.33301 3.93133 8.73501 3.33333 7.99967 3.33333C7.26434 3.33333 6.66634 3.93133 6.66634 4.66667C6.66634 5.402 7.26434 6 7.99967 6C8.73501 6 9.33301 5.402 9.33301 4.66667ZM10.6663 4.66667C10.6663 6.13733 9.47034 7.33333 7.99967 7.33333C6.52901 7.33333 5.33301 6.13733 5.33301 4.66667C5.33301 3.196 6.52901 2 7.99967 2C9.47034 2 10.6663 3.196 10.6663 4.66667ZM3.33301 13.3333C3.33301 10.76 5.42701 8.66667 7.99967 8.66667C10.5723 8.66667 12.6663 10.76 12.6663 13.3333C12.6663 13.7013 12.3683 14 11.9997 14C11.631 14 11.333 13.7013 11.333 13.3333C11.333 11.4953 9.83767 10 7.99967 10C6.16167 10 4.66634 11.4953 4.66634 13.3333C4.66634 13.7013 4.36834 14 3.99967 14C3.63101 14 3.33301 13.7013 3.33301 13.3333Z" fill="white"/>
</mask>
<g mask="url(#mask0)">
<g id="&#240;&#159;&#142;&#168; Color">
<rect id="Base" width="16" height="16" fill="#8613CD"/>
</g>
</g>
</g>
</svg>
