<svg width="30" height="30" viewBox="0 0 30 30" fill="none" xmlns="http://www.w3.org/2000/svg">
<path d="M15 21.2903C12.5985 21.2903 10.6451 23.2442 10.6451 25.6452C10.6451 28.0461 12.5985 30 15 30C17.4014 30 19.3548 28.0461 19.3548 25.6452C19.3548 23.2442 17.4014 21.2903 15 21.2903ZM13.1501 28.4792C13.3916 27.6755 14.1397 27.0968 15 27.0968C15.8603 27.0968 16.6084 27.6755 16.8498 28.4792C16.3171 28.8276 15.6822 29.0323 15 29.0323C14.3177 29.0323 13.6829 28.8276 13.1501 28.4792ZM14.0322 25.1613C14.0322 24.6276 14.4663 24.1935 15 24.1935C15.5337 24.1935 15.9677 24.6276 15.9677 25.1613C15.9677 25.695 15.5337 26.129 15 26.129C14.4663 26.129 14.0322 25.695 14.0322 25.1613ZM17.6143 27.796C17.3511 27.2439 16.9239 26.7905 16.394 26.4973C16.7279 26.1498 16.9355 25.68 16.9355 25.1613C16.9355 24.0939 16.0674 23.2258 15 23.2258C13.9326 23.2258 13.0645 24.0939 13.0645 25.1613C13.0645 25.68 13.2721 26.1498 13.6059 26.4977C13.0761 26.791 12.6493 27.2439 12.3856 27.7965C11.9032 27.2105 11.6129 26.461 11.6129 25.6452C11.6129 23.7774 13.1327 22.2581 15 22.2581C16.8672 22.2581 18.3871 23.7774 18.3871 25.6452C18.3871 26.461 18.0968 27.2105 17.6143 27.796Z" fill="white"/>
<path d="M15 0C12.5985 0 10.6452 1.95387 10.6452 4.35484C10.6452 4.91855 10.7565 5.45565 10.9519 5.95064C10.7027 5.86355 10.4395 5.80645 10.1613 5.80645C9.36097 5.80645 8.70968 6.45823 8.70968 7.25806V8.45419C8.70968 9.33774 8.23887 10.169 7.48113 10.6239C6.76548 11.0535 6.22597 11.7261 5.96274 12.5173L5.95161 12.5511L0 12.0552V20.3226H15C15.8003 20.3226 16.4516 19.6713 16.4516 18.871C16.4516 18.6798 16.4124 18.4984 16.3452 18.3314C16.9621 18.1635 17.4194 17.6047 17.4194 16.9355C17.4194 16.5624 17.2737 16.2252 17.0419 15.9677C17.2742 15.7103 17.4194 15.3731 17.4194 15C17.4194 14.6269 17.2737 14.2897 17.0419 14.0323C17.2742 13.7748 17.4194 13.4376 17.4194 13.0645C17.4194 12.2647 16.7685 11.6129 15.9682 11.6129H13.5484C13.0147 11.6129 12.5806 11.1789 12.5806 10.6452V8.22581C12.5806 8.1329 12.5632 8.04484 12.5531 7.95484C13.2513 8.43048 14.0932 8.70968 15 8.70968C17.4015 8.70968 19.3548 6.75581 19.3548 4.35484C19.3548 1.95387 17.4015 0 15 0ZM5.80645 19.3548H0.967742V13.1066L5.80645 13.5097V19.3548ZM13.5484 12.5806H15.9682C16.2348 12.5806 16.4516 12.7979 16.4516 13.0645C16.4516 13.3311 16.2348 13.5484 15.9677 13.5484H12.5806V14.5161H15.9677C16.2348 14.5161 16.4516 14.7334 16.4516 15C16.4516 15.2666 16.2348 15.4839 15.9677 15.4839H12.5806V16.4516H15.9677C16.2348 16.4516 16.4516 16.6689 16.4516 16.9355C16.4516 17.2021 16.2348 17.4194 15.9677 17.4194H12.5806V18.3871H15C15.2671 18.3871 15.4839 18.6039 15.4839 18.871C15.4839 19.1381 15.2671 19.3548 15 19.3548H6.77419V13.1429L6.88113 12.8235C7.07177 12.2511 7.46129 11.7648 7.97952 11.4542C9.0271 10.8256 9.6779 9.67597 9.6779 8.45468V7.25855C9.6779 6.99193 9.89516 6.77468 10.1618 6.77468C10.9621 6.77468 11.6134 7.42597 11.6134 8.22629V10.6456C11.6129 11.7126 12.481 12.5806 13.5484 12.5806ZM15 7.74194C13.1327 7.74194 11.6129 6.22258 11.6129 4.35484C11.6129 2.4871 13.1327 0.967742 15 0.967742C16.8673 0.967742 18.3871 2.4871 18.3871 4.35484C18.3871 6.22258 16.8673 7.74194 15 7.74194Z" fill="white"/>
<path d="M25.6451 10.6452C23.2437 10.6452 21.2903 12.599 21.2903 15C21.2903 17.401 23.2437 19.3548 25.6451 19.3548C28.0466 19.3548 30 17.401 30 15C30 12.599 28.0466 10.6452 25.6451 10.6452ZM25.6451 18.3871C23.7779 18.3871 22.258 16.8677 22.258 15C22.258 13.1323 23.7779 11.6129 25.6451 11.6129C27.5124 11.6129 29.0322 13.1323 29.0322 15C29.0322 16.8677 27.5124 18.3871 25.6451 18.3871Z" fill="white"/>
<path d="M27.0968 13.5484V15.4839H26.1291V12.5806H25.1613V15.4839H24.1936V14.5161H23.2258V16.4516H28.0645V13.5484H27.0968Z" fill="white"/>
<path d="M14.5161 3.87097H15.4839V4.83871H14.5161V3.87097Z" fill="white"/>
<path d="M16.4517 3.87097H17.4194V4.83871H16.4517V3.87097Z" fill="white"/>
<path d="M12.5807 3.87097H13.5484V4.83871H12.5807V3.87097Z" fill="white"/>
<path d="M25.2349 8.48274L25.8813 9.5129L26.6032 5.90129L25.6544 5.71113L25.395 7.00936C24.1447 5.35452 22.574 4.11629 20.5273 3.15871L20.1174 4.03548C22.3655 5.08694 23.9918 6.50032 25.2349 8.48274Z" fill="white"/>
<path d="M3.15869 9.47274L4.03595 9.88258C5.08643 7.63548 6.49982 6.00919 8.48272 4.76516L9.5124 4.11919L5.90127 3.39677L5.71159 4.34516L7.00982 4.605C5.35401 5.85581 4.11579 7.42645 3.15869 9.47274Z" fill="white"/>
<path d="M4.76512 21.5173L4.11866 20.4871L3.39673 24.0987L4.3456 24.2889L4.60495 22.9906C5.85528 24.6455 7.42592 25.8837 9.4727 26.8413L9.88302 25.9645C7.63447 24.9131 6.00818 23.4997 4.76512 21.5173Z" fill="white"/>
<path d="M26.8413 20.5273L25.964 20.1174C24.9135 22.3645 23.5001 23.9908 21.5172 25.2348L20.4875 25.8808L24.0987 26.6032L24.2888 25.6544L22.9906 25.3945C24.6459 24.1442 25.8842 22.5736 26.8413 20.5273Z" fill="white"/>
</svg>
