<svg width="16" height="16" viewBox="0 0 16 16" fill="none" xmlns="http://www.w3.org/2000/svg">
<g id="Icon/Outline/shield">
<path id="Mask" fill-rule="evenodd" clip-rule="evenodd" d="M8 2.76435L3.33333 5.38968V5.48635C3.33333 8.64635 5.044 11.5723 7.79867 13.1223L8 13.2357L8.20133 13.1223C10.956 11.5723 12.6667 8.64635 12.6667 5.48635V5.38968L8 2.76435ZM8 14.567C7.774 14.567 7.548 14.511 7.34733 14.3977L7.14533 14.2837C3.97133 12.499 2 9.12768 2 5.48635V5.38968C2 4.91035 2.26 4.46501 2.67867 4.22835L7.34667 1.60301C7.75 1.37635 8.25067 1.37568 8.65267 1.60235L13.32 4.22768C13.74 4.46501 14 4.91035 14 5.38968V5.48635C14 9.12768 12.0287 12.499 8.85467 14.2837L8.65333 14.397C8.452 14.5103 8.226 14.567 8 14.567Z" fill="#231F20"/>
<mask id="mask0" mask-type="alpha" maskUnits="userSpaceOnUse" x="2" y="1" width="12" height="14">
<path id="Mask_2" fill-rule="evenodd" clip-rule="evenodd" d="M8 2.76435L3.33333 5.38968V5.48635C3.33333 8.64635 5.044 11.5723 7.79867 13.1223L8 13.2357L8.20133 13.1223C10.956 11.5723 12.6667 8.64635 12.6667 5.48635V5.38968L8 2.76435ZM8 14.567C7.774 14.567 7.548 14.511 7.34733 14.3977L7.14533 14.2837C3.97133 12.499 2 9.12768 2 5.48635V5.38968C2 4.91035 2.26 4.46501 2.67867 4.22835L7.34667 1.60301C7.75 1.37635 8.25067 1.37568 8.65267 1.60235L13.32 4.22768C13.74 4.46501 14 4.91035 14 5.38968V5.48635C14 9.12768 12.0287 12.499 8.85467 14.2837L8.65333 14.397C8.452 14.5103 8.226 14.567 8 14.567Z" fill="white"/>
</mask>
<g mask="url(#mask0)">
<g id="&#240;&#159;&#142;&#168; Color">
<rect id="Base" width="16" height="16" fill="#1E2337"/>
</g>
</g>
</g>
</svg>
