<svg width="18" height="18" viewBox="0 0 18 18" fill="none" xmlns="http://www.w3.org/2000/svg">
<g clip-path="url(#clip0)">
<path d="M3.16585 13.9201C2.91385 13.9201 2.6716 13.983 2.45668 14.1011C1.32454 12.6498 0.703125 10.8469 0.703125 9C0.703125 4.42502 4.42502 0.703125 9 0.703125C9.55618 0.703125 10.1121 0.758469 10.6523 0.867645C10.8424 0.906097 11.0281 0.783051 11.0665 0.592712C11.105 0.402374 10.9819 0.21698 10.7916 0.178391C10.2056 0.0600128 9.60287 0 9 0C6.59605 0 4.33589 0.936172 2.63603 2.63603C0.936172 4.33589 0 6.59605 0 9C0 11.0222 0.686646 12.9956 1.93675 14.5776C1.7758 14.8181 1.68929 15.1007 1.68929 15.3967C1.68929 15.7911 1.84296 16.1618 2.12187 16.4406C2.40065 16.7195 2.77144 16.8732 3.16585 16.8732C3.56026 16.8732 3.93105 16.7195 4.20996 16.4406C4.48888 16.1618 4.64241 15.7909 4.64241 15.3965C4.64241 15.0022 4.48888 14.6313 4.20996 14.3525C3.93105 14.0736 3.56026 13.9201 3.16585 13.9201ZM3.71269 15.9435C3.56671 16.0896 3.37239 16.1701 3.16585 16.1701C2.9593 16.1701 2.76512 16.0896 2.619 15.9435C2.47289 15.7974 2.39241 15.6032 2.39241 15.3967C2.39241 15.19 2.47289 14.9958 2.619 14.8497C2.76498 14.7036 2.9593 14.6232 3.16585 14.6232C3.37239 14.6232 3.56657 14.7037 3.71269 14.8497C3.85881 14.9958 3.93929 15.19 3.93929 15.3967C3.93929 15.6032 3.85881 15.7974 3.71269 15.9435Z" fill="white"/>
<path d="M16.0629 3.42198C16.4451 2.84863 16.3837 2.06476 15.8782 1.55925C15.5993 1.28047 15.2285 1.1268 14.8341 1.1268C14.4397 1.1268 14.0689 1.28047 13.79 1.55925C13.5111 1.83817 13.3575 2.20895 13.3575 2.60336C13.3575 2.99777 13.5111 3.36856 13.79 3.64748C14.0689 3.92639 14.4397 4.07993 14.8341 4.07993C15.0861 4.07993 15.3284 4.01703 15.5433 3.89893C16.6754 5.35036 17.2968 7.15308 17.2968 9.00002C17.2968 13.575 13.5749 17.2969 8.99995 17.2969C8.44927 17.2969 7.89858 17.2426 7.3634 17.1355C7.17307 17.0975 6.98781 17.2209 6.94963 17.4113C6.91159 17.6018 7.03505 17.7869 7.22539 17.8251C7.80588 17.9411 8.40299 18 8.99995 18C11.4039 18 13.6641 17.0638 15.3639 15.364C17.0638 13.6641 17.9999 11.404 17.9999 9.00002C17.9999 6.97771 17.3132 5.00415 16.0629 3.42198ZM14.2873 3.15034C14.1411 3.00423 14.0607 2.81004 14.0607 2.60336C14.0607 2.39682 14.1411 2.20264 14.2873 2.05652C14.4332 1.9104 14.6276 1.82993 14.8341 1.82993C15.0406 1.82993 15.235 1.9104 15.3811 2.05652C15.6825 2.35809 15.6825 2.84877 15.3811 3.15034C15.235 3.29633 15.0406 3.3768 14.8341 3.3768C14.6274 3.3768 14.4332 3.29633 14.2873 3.15034Z" fill="white"/>
<path d="M7.54919 15.0469C7.54919 15.2411 7.70671 15.3984 7.90076 15.3984H10.099C10.2932 15.3984 10.4505 15.2411 10.4505 15.0469V14.3653C10.9128 14.2409 11.3547 14.0577 11.77 13.8185L12.2512 14.2997C12.3171 14.3656 12.4065 14.4027 12.4999 14.4027C12.593 14.4027 12.6826 14.3656 12.7485 14.2995L14.3022 12.7447C14.4394 12.6074 14.4394 12.3848 14.3022 12.2476L13.8216 11.7669C14.0608 11.3516 14.244 10.9097 14.3684 10.4474H15.0474C15.2415 10.4474 15.3989 10.2901 15.3989 10.0959V7.89766C15.3989 7.70348 15.2415 7.5461 15.0474 7.5461H14.3683C14.2438 7.08398 14.0608 6.64206 13.8216 6.22678L14.2996 5.74873C14.3655 5.68282 14.4026 5.59328 14.4026 5.50003C14.4025 5.40678 14.3654 5.31725 14.2995 5.25133L12.7445 3.69759C12.6073 3.56039 12.3847 3.56039 12.2474 3.69772L11.77 4.17522C11.3547 3.93599 10.9128 3.75279 10.4505 3.62837V2.95312C10.4505 2.75894 10.2932 2.60156 10.099 2.60156H7.90076C7.70671 2.60156 7.54919 2.75894 7.54919 2.95312V3.62851C7.08708 3.75279 6.64516 3.93599 6.22987 4.17522L5.75238 3.69772C5.61519 3.56053 5.39258 3.56039 5.25525 3.69759L3.70041 5.25146C3.63435 5.31738 3.59728 5.40678 3.59728 5.50003C3.59728 5.59328 3.63435 5.68282 3.70027 5.74873L4.17831 6.22678C3.93909 6.64206 3.75589 7.08385 3.63147 7.5461H2.95375C2.75957 7.5461 2.60219 7.70348 2.60219 7.89752L2.60095 10.0957C2.60082 10.189 2.63789 10.2785 2.70381 10.3445C2.76973 10.4104 2.85913 10.4474 2.95251 10.4474H3.63147C3.75589 10.9097 3.93909 11.3516 4.17831 11.7669L3.69766 12.2476C3.56047 12.3848 3.56033 12.6074 3.69766 12.7447L5.2514 14.2995C5.31732 14.3654 5.40672 14.4027 5.49997 14.4027H5.50011C5.59335 14.4027 5.68275 14.3656 5.74867 14.2997L6.22974 13.8185C6.64516 14.0577 7.08708 14.2409 7.54919 14.3653V15.0469ZM6.36761 13.0791C6.2285 12.9891 6.04544 13.0086 5.92816 13.1258L5.50011 13.5538L4.44336 12.4963L4.871 12.0685C4.98814 11.9513 5.00764 11.7683 4.91769 11.6292C4.59895 11.1359 4.37483 10.5952 4.25179 10.022C4.2169 9.86009 4.07381 9.74432 3.90805 9.74432H3.30421L3.30504 8.24922H3.90805C4.07381 8.24922 4.2169 8.13359 4.25179 7.97154C4.37483 7.39847 4.59895 6.8578 4.91769 6.36452C5.00764 6.2254 4.98814 6.04234 4.871 5.9252L4.44611 5.50017L5.50368 4.44342L5.92816 4.86804C6.04544 4.98518 6.22836 5.00455 6.36761 4.91473C6.86076 4.59599 7.40143 4.37187 7.97464 4.24883C8.13655 4.21394 8.25232 4.07071 8.25232 3.90509V3.30469H9.74742V3.90495C9.74742 4.07071 9.86305 4.21394 10.0251 4.24869C10.5982 4.37187 11.139 4.59586 11.6321 4.9146C11.7712 5.00455 11.9543 4.98518 12.0714 4.8679L12.4961 4.44342L13.5536 5.50017L13.1287 5.92506C13.0115 6.04234 12.9921 6.2254 13.082 6.36452C13.4008 6.8578 13.6248 7.39847 13.748 7.97154C13.7827 8.13359 13.9259 8.24922 14.0917 8.24922H14.6958V9.74432H14.0917C13.9259 9.74432 13.7828 9.86009 13.748 10.022C13.6249 10.5951 13.4008 11.1359 13.082 11.629C12.9921 11.7683 13.0116 11.9513 13.1287 12.0685L13.5564 12.4961L12.4996 13.5537L12.0716 13.1258C11.9543 13.0085 11.7712 12.9891 11.6321 13.0791C11.1388 13.3978 10.5982 13.6218 10.0251 13.745C9.86305 13.7799 9.74742 13.923 9.74742 14.0887V14.6953H8.25232V14.0887C8.25232 13.9231 8.13655 13.7799 7.97464 13.745C7.40157 13.6219 6.8609 13.3978 6.36761 13.0791Z" fill="white"/>
<path d="M11.9049 8.99998C11.9049 7.39818 10.6018 6.09506 9.00002 6.09506C7.39821 6.09506 6.09509 7.39818 6.09509 8.99998C6.09509 10.6018 7.39821 11.9049 9.00002 11.9049C10.6018 11.9049 11.9049 10.6018 11.9049 8.99998ZM6.79822 8.99998C6.79822 7.78586 7.78589 6.79819 9.00002 6.79819C10.2141 6.79819 11.2018 7.786 11.2018 8.99998C11.2018 10.214 10.2141 11.2018 9.00002 11.2018C7.78589 11.2018 6.79822 10.2141 6.79822 8.99998Z" fill="white"/>
<path d="M12.2371 1.32961C12.3296 1.32961 12.4203 1.29198 12.4856 1.22661C12.551 1.16083 12.5886 1.07019 12.5886 0.977631C12.5886 0.88562 12.5511 0.794846 12.4856 0.729065C12.4203 0.663696 12.3296 0.626068 12.2371 0.626068C12.1442 0.626068 12.054 0.663696 11.9886 0.729065C11.9231 0.794846 11.8855 0.885208 11.8855 0.977631C11.8855 1.07047 11.9231 1.16083 11.9886 1.22661C12.054 1.29198 12.1442 1.32961 12.2371 1.32961Z" fill="white"/>
<path d="M5.77832 16.6767C5.6859 16.6767 5.59512 16.7143 5.52975 16.7797C5.46439 16.8451 5.42676 16.9358 5.42676 17.0283C5.42676 17.1211 5.46439 17.2115 5.52975 17.2768C5.59512 17.3422 5.6859 17.3798 5.77832 17.3798C5.87074 17.3798 5.96152 17.3422 6.02689 17.2768C6.09225 17.2115 6.12988 17.1207 6.12988 17.0283C6.12988 16.9358 6.09225 16.8451 6.02689 16.7797C5.96152 16.7143 5.87074 16.6767 5.77832 16.6767Z" fill="white"/>
</g>
<defs>
<clipPath id="clip0">
<rect width="18" height="18" fill="white"/>
</clipPath>
</defs>
</svg>
