<svg width="18" height="18" viewBox="0 0 18 18" fill="none" xmlns="http://www.w3.org/2000/svg">
<g clip-path="url(#clip0)">
<path d="M3.17634 9.5155C3.38841 9.5155 3.56033 9.34358 3.56033 9.13151C3.56033 8.91944 3.38841 8.74753 3.17634 8.74753C2.96427 8.74753 2.79236 8.91944 2.79236 9.13151C2.79236 9.34358 2.96427 9.5155 3.17634 9.5155Z" fill="white"/>
<path d="M3.17634 11.4115C3.38841 11.4115 3.56033 11.2395 3.56033 11.0275C3.56033 10.8154 3.38841 10.6435 3.17634 10.6435C2.96427 10.6435 2.79236 10.8154 2.79236 11.0275C2.79236 11.2395 2.96427 11.4115 3.17634 11.4115Z" fill="white"/>
<path d="M3.17634 13.3074C3.38841 13.3074 3.56033 13.1355 3.56033 12.9234C3.56033 12.7113 3.38841 12.5394 3.17634 12.5394C2.96427 12.5394 2.79236 12.7113 2.79236 12.9234C2.79236 13.1355 2.96427 13.3074 3.17634 13.3074Z" fill="white"/>
<path d="M12.5603 0H4.59718C4.182 0 3.79152 0.161046 3.49719 0.453608L0.624777 3.12917C0.622473 3.13133 0.620204 3.1335 0.618006 3.13573C0.323246 3.43049 0.160924 3.82238 0.160924 4.23923V8.33889C0.160924 8.48572 0.279963 8.60476 0.426793 8.60476C0.573624 8.60476 0.692662 8.48572 0.692662 8.33889V4.23923C0.692662 4.21112 0.694045 4.18318 0.696278 4.15546H3.42058C4.02319 4.15546 4.51345 3.66523 4.51345 3.06263V0.535354C4.54117 0.53312 4.56907 0.531738 4.59721 0.531738H12.5604C12.8484 0.531738 13.0827 0.766057 13.0827 1.05405V16.946C13.0827 17.234 12.8484 17.4683 12.5604 17.4683H1.21494C0.92691 17.4683 0.692627 17.234 0.692627 16.946V9.4024C0.692627 9.25557 0.573588 9.13653 0.426758 9.13653C0.279927 9.13653 0.160889 9.25557 0.160889 9.4024V16.946C0.160889 17.5272 0.63371 18 1.21494 18H12.5603C13.1415 18 13.6144 17.5272 13.6144 16.946V1.05405C13.6144 0.472821 13.1415 0 12.5603 0V0ZM3.98167 3.06263C3.98167 3.37203 3.72995 3.62372 3.42055 3.62372H0.897027C0.925563 3.58569 0.956759 3.54924 0.990825 3.51489L3.86292 0.839614C3.86522 0.837452 3.86749 0.835289 3.86969 0.833056C3.905 0.797749 3.94247 0.765419 3.98171 0.735996V3.06263H3.98167Z" fill="white"/>
<path d="M10.983 8.86563H4.81506C4.66823 8.86563 4.54919 8.98467 4.54919 9.1315C4.54919 9.27833 4.66823 9.39737 4.81506 9.39737H10.983C11.1298 9.39737 11.2488 9.27833 11.2488 9.1315C11.2488 8.98467 11.1298 8.86563 10.983 8.86563Z" fill="white"/>
<path d="M10.983 10.7616H4.81506C4.66823 10.7616 4.54919 10.8806 4.54919 11.0275C4.54919 11.1743 4.66823 11.2933 4.81506 11.2933H10.983C11.1298 11.2933 11.2488 11.1743 11.2488 11.0275C11.2488 10.8806 11.1298 10.7616 10.983 10.7616Z" fill="white"/>
<path d="M10.983 12.6576H4.81506C4.66823 12.6576 4.54919 12.7766 4.54919 12.9234C4.54919 13.0703 4.66823 13.1893 4.81506 13.1893H10.983C11.1298 13.1893 11.2488 13.0703 11.2488 12.9234C11.2488 12.7766 11.1298 12.6576 10.983 12.6576Z" fill="white"/>
<path d="M6.09434 6.22821H2.94727C2.80043 6.22821 2.6814 6.34725 2.6814 6.49408C2.6814 6.64091 2.80043 6.75995 2.94727 6.75995H6.09434C6.24117 6.75995 6.36021 6.64091 6.36021 6.49408C6.36021 6.34725 6.24117 6.22821 6.09434 6.22821Z" fill="white"/>
<path d="M17.5732 5.59477H16.7553V4.95484C16.7553 4.34579 16.2598 3.85028 15.6507 3.85028C15.0417 3.85028 14.5461 4.34579 14.5461 4.95484V8.54425C14.5461 8.69108 14.6652 8.81012 14.812 8.81012C14.9588 8.81012 15.0779 8.69108 15.0779 8.54425V6.12647H16.2235V14.5246H15.0779V9.60773C15.0779 9.46089 14.9588 9.34186 14.812 9.34186C14.6652 9.34186 14.5461 9.46089 14.5461 9.60773V14.7905C14.5461 14.7924 14.5464 14.7943 14.5464 14.7962C14.5465 14.8015 14.5468 14.8067 14.5472 14.8121C14.5476 14.8162 14.548 14.8204 14.5486 14.8245C14.5491 14.8288 14.5497 14.833 14.5505 14.8373C14.5514 14.8424 14.5525 14.8474 14.5537 14.8523C14.5541 14.8543 14.5544 14.8562 14.5549 14.8582L15.3154 17.7463C15.3172 17.753 15.3192 17.7597 15.3215 17.7662C15.3703 17.9061 15.5026 18 15.6507 18C15.7988 18 15.9311 17.906 15.9799 17.7661C15.9822 17.7596 15.9842 17.753 15.9859 17.7463L16.7465 14.8582C16.747 14.8562 16.7473 14.8543 16.7477 14.8523C16.7489 14.8474 16.75 14.8424 16.7509 14.8373C16.7516 14.833 16.7523 14.8288 16.7528 14.8245C16.7533 14.8204 16.7538 14.8162 16.7541 14.8121C16.7546 14.8067 16.7548 14.8015 16.7549 14.7962C16.755 14.7943 16.7552 14.7924 16.7552 14.7905V6.12651H17.3073V9.96399C17.3073 10.1108 17.4263 10.2299 17.5731 10.2299C17.72 10.2299 17.839 10.1108 17.839 9.96399V5.86064C17.839 5.71381 17.72 5.59477 17.5732 5.59477ZM15.0779 5.59477V4.95484C15.0779 4.63899 15.3349 4.38202 15.6507 4.38202C15.9666 4.38202 16.2235 4.63899 16.2235 4.95484V5.59477H15.0779ZM15.6507 16.9314L15.157 15.0564H16.1444L15.6507 16.9314Z" fill="white"/>
</g>
<defs>
<clipPath id="clip0">
<rect width="18" height="18" fill="white"/>
</clipPath>
</defs>
</svg>
